<svg width="38" height="38" viewBox="0 0 38 38" fill="none" xmlns="http://www.w3.org/2000/svg">
<path d="M31.4803 38L34.4117 35.0685L29.2181 13.9431C32.4681 10.9161 34.9533 8.59006 35.4631 8.11211C36.5783 6.99689 37.5661 3.04582 37.9803 1.00656C38.1078 0.433016 37.5979 -0.108654 36.9925 0.0187996C34.9533 0.464887 31.0024 1.4208 29.8872 2.53602C29.4411 2.9821 27.1151 5.4993 24.0563 8.78124L2.93139 3.58752L0 6.51894L17.6201 15.7275C13.3186 20.3795 9.11273 24.9678 7.2647 26.9434L3.25001 26.561L0.796566 29.0145L6.08576 30.7988L3.50489 34.1445L3.82352 34.4631L7.1691 31.8822L8.9534 37.1715L11.4068 34.7181L11.0245 30.7033C13.0318 28.8552 17.5882 24.6492 22.2401 20.3477L31.4803 38Z" fill="url(#paint0_linear)"/>
<defs>
<linearGradient id="paint0_linear" x1="38" y1="10.7955" x2="2.6831" y2="34.2648" gradientUnits="userSpaceOnUse">
<stop stop-color="#E1C5B0"/>
<stop offset="1" stop-color="#B48564"/>
</linearGradient>
</defs>
</svg>
