<svg width="31" height="31" viewBox="0 0 31 31" fill="none" xmlns="http://www.w3.org/2000/svg">
<path d="M21.1528 30.7196H9.34659C4.18137 30.7196 0 26.5382 0 21.373V9.56684C0 4.40164 4.18137 0.220276 9.34659 0.220276H21.1528C26.318 0.220276 30.4994 4.40164 30.4994 9.56684V21.373C30.4502 26.5382 26.2688 30.7196 21.1528 30.7196ZM9.34659 1.40089C4.82087 1.40089 1.13144 5.09032 1.13144 9.61602V21.4222C1.13144 25.9479 4.82087 29.6374 9.34659 29.6374H21.1528C25.6785 29.6374 29.368 25.9479 29.368 21.4222V9.61602C29.368 5.09032 25.6785 1.40089 21.1528 1.40089H9.34659Z" fill="url(#paint0_linear)"/>
<path d="M19.2834 7.45157L16.9221 7.40237C15.9875 7.40237 15.102 7.74672 14.4133 8.38623C13.7246 9.02573 13.3803 9.91119 13.3803 10.8459V13.1087H11.1666C11.0682 13.1087 11.019 13.1579 11.019 13.2563V16.0603C11.019 16.1587 11.0682 16.2079 11.1666 16.2079H13.3803V23.3408C13.3803 23.4392 13.4295 23.4883 13.5279 23.4883H16.4302C16.5286 23.4883 16.5778 23.4392 16.5778 23.3408V16.2079H18.7914C18.8898 16.2079 18.939 16.1587 18.939 16.0603L19.2834 13.2563C19.2834 13.2071 19.2834 13.1579 19.2342 13.1087C19.185 13.0595 19.1358 13.0595 19.0866 13.0595H16.4794V11.6329C16.4794 11.6329 16.4302 10.9442 16.7746 10.5507C16.9221 10.3539 17.1681 10.2556 17.4632 10.2556H19.1358C19.2342 10.2556 19.2834 10.2063 19.2834 10.108V7.54996C19.4801 7.50077 19.3818 7.45157 19.2834 7.45157Z" fill="url(#paint1_linear)"/>
<defs>
<linearGradient id="paint0_linear" x1="27.2589" y1="3.46167" x2="2.31269" y2="28.408" gradientUnits="userSpaceOnUse">
<stop stop-color="#E1C5B0"/>
<stop offset="1" stop-color="#B48564"/>
</linearGradient>
<linearGradient id="paint1_linear" x1="27.6258" y1="3.82858" x2="2.67942" y2="28.7748" gradientUnits="userSpaceOnUse">
<stop stop-color="#E1C5B0"/>
<stop offset="1" stop-color="#B48564"/>
</linearGradient>
</defs>
</svg>
