<svg width="31" height="31" viewBox="0 0 31 31" fill="none" xmlns="http://www.w3.org/2000/svg">
<path d="M21.6533 30.6095H9.84708C4.68186 30.6095 0.500488 26.4281 0.500488 21.2629V9.45671C0.500488 4.2915 4.68186 0.110138 9.84708 0.110138H21.6533C26.8185 0.110138 30.9999 4.2915 30.9999 9.45671V21.2629C30.9507 26.4281 26.7693 30.6095 21.6533 30.6095ZM9.84708 1.29075C5.32136 1.29075 1.63193 4.98019 1.63193 9.50589V21.3121C1.63193 25.8378 5.32136 29.5272 9.84708 29.5272H21.6533C26.179 29.5272 29.8685 25.8378 29.8685 21.3121V9.50589C29.8685 4.98019 26.179 1.29075 21.6533 1.29075H9.84708Z" fill="url(#paint0_linear)"/>
<path d="M18.8988 8.03009H12.6021C10.2409 8.03009 8.37158 9.9486 8.37158 12.2606V18.5081C8.37158 20.8693 10.2901 22.7386 12.6021 22.7386H18.8496C21.2108 22.7386 23.0801 20.8201 23.0801 18.5081V12.2606C23.1293 9.9486 21.2108 8.03009 18.8988 8.03009ZM21.6044 18.5081C21.6044 20.0331 20.3746 21.2629 18.8496 21.2629H12.6021C11.0772 21.2629 9.84736 20.0331 9.84736 18.5081V12.2606C9.84736 10.7357 11.0772 9.50586 12.6021 9.50586H18.8496C20.3746 9.50586 21.6044 10.7357 21.6044 12.2606V18.5081Z" fill="url(#paint1_linear)"/>
<path d="M15.7501 11.9655C13.8808 11.9655 12.3066 13.4905 12.3066 15.409C12.3066 17.2783 13.8316 18.8524 15.7501 18.8524C17.6686 18.8524 19.1936 17.3275 19.1936 15.409C19.1936 13.4905 17.6194 11.9655 15.7501 11.9655ZM15.7501 17.2783C14.7171 17.2783 13.8808 16.442 13.8808 15.409C13.8808 14.3759 14.7171 13.5397 15.7501 13.5397C16.7832 13.5397 17.6194 14.3759 17.6194 15.409C17.6194 16.442 16.7832 17.2783 15.7501 17.2783Z" fill="url(#paint2_linear)"/>
<path d="M19.5872 12.5558C20.1577 12.5558 20.6201 12.0933 20.6201 11.5228C20.6201 10.9522 20.1577 10.4897 19.5872 10.4897C19.0167 10.4897 18.5542 10.9522 18.5542 11.5228C18.5542 12.0933 19.0167 12.5558 19.5872 12.5558Z" fill="url(#paint3_linear)"/>
<defs>
<linearGradient id="paint0_linear" x1="29.4747" y1="1.67249" x2="2.34871" y2="28.7985" gradientUnits="userSpaceOnUse">
<stop stop-color="#E1C5B0"/>
<stop offset="0.482" stop-color="#E1C5B0"/>
<stop offset="1" stop-color="#B48564"/>
</linearGradient>
<linearGradient id="paint1_linear" x1="29.475" y1="1.67245" x2="2.34888" y2="28.7985" gradientUnits="userSpaceOnUse">
<stop stop-color="#E1C5B0"/>
<stop offset="0.482" stop-color="#E1C5B0"/>
<stop offset="1" stop-color="#B48564"/>
</linearGradient>
<linearGradient id="paint2_linear" x1="29.4747" y1="1.67243" x2="2.34854" y2="28.7985" gradientUnits="userSpaceOnUse">
<stop stop-color="#E1C5B0"/>
<stop offset="0.482" stop-color="#E1C5B0"/>
<stop offset="1" stop-color="#B48564"/>
</linearGradient>
<linearGradient id="paint3_linear" x1="29.4456" y1="1.6441" x2="2.31934" y2="28.768" gradientUnits="userSpaceOnUse">
<stop stop-color="#E1C5B0"/>
<stop offset="0.482" stop-color="#E1C5B0"/>
<stop offset="1" stop-color="#B48564"/>
</linearGradient>
</defs>
</svg>
