<svg width="14" height="26" viewBox="0 0 14 26" fill="none" xmlns="http://www.w3.org/2000/svg">
<path d="M14.0001 7.09572V18.9043C14.0001 22.8228 11.1813 26 7.70475 26H6.29534C2.81882 26 0 22.8228 0 18.9043V7.09572C0 3.17719 2.77182 0.0529532 6.24835 0V3.07128C4.88592 3.44195 3.89934 4.65988 3.89934 6.14257V10.2729C3.89934 12.0204 5.30875 13.4501 7.04701 13.4501C8.78528 13.4501 10.1947 12.0204 10.1947 10.2729V6.19552C10.1947 4.60692 9.06716 3.33605 7.61078 3.07128V0.0529523H7.75171C11.1813 -8.10081e-07 14.0001 3.17719 14.0001 7.09572ZM5.07384 6.83095V9.63747C5.07384 10.8024 5.9195 11.8086 7.00004 11.8086C8.03361 11.8086 8.92622 10.8554 8.92622 9.63747V6.83095C8.92622 5.66598 8.08059 4.65988 7.00004 4.65988C5.96648 4.71283 5.07384 5.66598 5.07384 6.83095Z" fill="black"/>
<path d="M14.0001 7.09572V18.9043C14.0001 22.8228 11.1813 26 7.70475 26H6.29534C2.81882 26 0 22.8228 0 18.9043V7.09572C0 3.17719 2.77182 0.0529532 6.24835 0V3.07128C4.88592 3.44195 3.89934 4.65988 3.89934 6.14257V10.2729C3.89934 12.0204 5.30875 13.4501 7.04701 13.4501C8.78528 13.4501 10.1947 12.0204 10.1947 10.2729V6.19552C10.1947 4.60692 9.06716 3.33605 7.61078 3.07128V0.0529523H7.75171C11.1813 -8.10081e-07 14.0001 3.17719 14.0001 7.09572ZM5.07384 6.83095V9.63747C5.07384 10.8024 5.9195 11.8086 7.00004 11.8086C8.03361 11.8086 8.92622 10.8554 8.92622 9.63747V6.83095C8.92622 5.66598 8.08059 4.65988 7.00004 4.65988C5.96648 4.71283 5.07384 5.66598 5.07384 6.83095Z" fill="url(#paint0_linear)"/>
<defs>
<linearGradient id="paint0_linear" x1="14.0001" y1="7.38636" x2="-2.62837" y2="13.3365" gradientUnits="userSpaceOnUse">
<stop stop-color="#E1C5B0"/>
<stop offset="1" stop-color="#B48564"/>
</linearGradient>
</defs>
</svg>
