<svg width="22" height="22" viewBox="0 0 22 22" fill="none" xmlns="http://www.w3.org/2000/svg">
<path d="M21.9871 17.3712C22.0388 17.7352 21.9353 18.0473 21.6767 18.3073L18.5726 21.3759C18.4174 21.5319 18.2622 21.6879 18.0035 21.792C17.7966 21.896 17.5379 21.948 17.331 22C17.331 22 17.2793 22 17.1758 22C17.1241 22 17.0206 22 16.8654 22C16.555 22 16.0894 21.948 15.4168 21.844C14.7443 21.7399 13.9683 21.4799 12.9853 21.1158C12.0541 20.6998 10.9677 20.1277 9.77777 19.3475C8.58789 18.5674 7.29453 17.4752 5.94944 16.0709C4.86302 14.9787 3.98355 13.9905 3.25927 13.0024C2.53499 12.0142 1.9659 11.13 1.55203 10.2979C1.13815 9.46573 0.776017 8.73759 0.56908 8.06146C0.362143 7.38534 0.206943 6.81324 0.103475 6.29314C0.0517406 5.82506 0 5.40899 0 5.14895C0 4.8889 0 4.73286 0 4.68085C0.0517343 4.47281 0.103465 4.26478 0.206934 4.00473C0.310402 3.79669 0.465615 3.58865 0.620818 3.43263L3.72487 0.31206C3.93181 0.104022 4.19048 0 4.44915 0C4.65609 0 4.81129 0.052019 4.96649 0.156038C5.1217 0.260057 5.27689 0.416079 5.38036 0.572107L7.86362 5.30497C8.01882 5.56502 8.01881 5.82507 7.96708 6.13712C7.91534 6.44918 7.76014 6.65721 7.55321 6.86525L6.41505 8.00947C6.36331 8.06147 6.36332 8.11348 6.31159 8.16549C6.31159 8.2175 6.25985 8.2695 6.25985 8.32151C6.31158 8.63357 6.46678 8.99763 6.67372 9.41371C6.88066 9.77778 7.13933 10.2459 7.55321 10.766C7.91535 11.2861 8.48443 11.9102 9.20871 12.6383C9.88126 13.3664 10.5021 13.8865 11.0711 14.3026C11.5885 14.7187 12.0541 14.9787 12.4162 15.1868C12.7784 15.3948 13.037 15.4988 13.244 15.4988L13.5544 15.5508C13.6061 15.5508 13.6578 15.5508 13.7096 15.4988C13.7613 15.4988 13.8131 15.4468 13.8648 15.3948L15.2099 14.0425C15.4685 13.7825 15.8307 13.6785 16.1928 13.6785C16.4515 13.6785 16.6584 13.7305 16.8136 13.8345L21.2628 16.487C21.7284 16.8511 21.9353 17.0591 21.9871 17.3712Z" fill="url(#paint0_linear)"/>
<defs>
<linearGradient id="paint0_linear" x1="19.6626" y1="2.3381" x2="1.66817" y2="20.3325" gradientUnits="userSpaceOnUse">
<stop stop-color="#E1C5B0"/>
<stop offset="1" stop-color="#B48564"/>
</linearGradient>
</defs>
</svg>
