<svg width="31" height="31" viewBox="0 0 31 31" fill="none" xmlns="http://www.w3.org/2000/svg">
<path d="M21.1528 30.4993H9.34659C4.18137 30.4993 0 26.318 0 21.1528V9.34657C0 4.18136 4.18137 0 9.34659 0H21.1528C26.318 0 30.4994 4.18136 30.4994 9.34657V21.1528C30.4994 26.318 26.318 30.4993 21.1528 30.4993ZM9.34659 1.18062C4.82087 1.18062 1.13142 4.87005 1.13142 9.39576V21.202C1.13142 25.7277 4.82087 29.4171 9.34659 29.4171H21.1528C25.6785 29.4171 29.368 25.7277 29.368 21.202V9.39576C29.368 4.87005 25.6785 1.18062 21.1528 1.18062H9.34659Z" fill="url(#paint0_linear)"/>
<path d="M18.9887 17.1682L17.4637 16.4795C17.3162 16.4303 17.1686 16.4303 17.021 16.5287L16.4307 16.9714C16.2339 17.119 15.988 17.119 15.7912 17.0206C15.5453 16.873 13.7252 15.1021 13.6268 14.8561C13.5284 14.6594 13.5284 14.4134 13.676 14.2166L14.1187 13.6263C14.2171 13.4787 14.2171 13.3312 14.1679 13.1836L13.4792 11.6586C13.3808 11.4618 13.2333 11.3635 13.0365 11.3635H12.5446C12.4954 11.3635 12.397 11.3635 12.3478 11.4127C11.4132 11.8062 11.4624 12.9868 11.4624 12.9868C11.4624 14.7577 12.9381 16.3811 13.6268 17.0206C14.2171 17.6601 15.9388 19.2835 17.7589 19.2835C17.7589 19.2835 18.9395 19.3327 19.333 18.398C19.3822 18.3488 19.3822 18.2504 19.3822 18.2012V17.7093C19.2838 17.4141 19.1362 17.2174 18.9887 17.1682Z" fill="url(#paint1_linear)"/>
<path d="M6.44434 24.1043L7.9693 19.3326C7.23142 18.0536 6.83788 16.5779 6.83788 15.1021C6.83788 10.3796 10.6749 6.49341 15.4465 6.49341C20.2182 6.49341 24.0552 10.3304 24.0552 15.1021C24.0552 19.8246 20.2182 23.7108 15.4465 23.7108C13.9708 23.7108 12.495 23.3172 11.216 22.5793L6.44434 24.1043ZM11.4128 20.8576L11.7079 21.0544C12.8393 21.7431 14.1183 22.1366 15.4465 22.1366C19.3327 22.1366 22.5302 18.9883 22.5302 15.0529C22.5302 11.1667 19.3819 7.96918 15.4465 7.96918C11.5111 7.96918 8.36285 11.1175 8.36285 15.0529C8.36285 16.3811 8.75638 17.6601 9.44507 18.7915L9.64183 19.0867L8.80557 21.6939L11.4128 20.8576Z" fill="url(#paint2_linear)"/>
<defs>
<linearGradient id="paint0_linear" x1="30.0565" y1="0.480118" x2="3.11055" y2="27.4261" gradientUnits="userSpaceOnUse">
<stop stop-color="#E1C5B0"/>
<stop offset="1" stop-color="#B48564"/>
</linearGradient>
<linearGradient id="paint1_linear" x1="30.0568" y1="0.48026" x2="3.11069" y2="27.4258" gradientUnits="userSpaceOnUse">
<stop stop-color="#E1C5B0"/>
<stop offset="1" stop-color="#B48564"/>
</linearGradient>
<linearGradient id="paint2_linear" x1="30.0566" y1="0.480269" x2="3.11078" y2="27.426" gradientUnits="userSpaceOnUse">
<stop stop-color="#E1C5B0"/>
<stop offset="1" stop-color="#B48564"/>
</linearGradient>
</defs>
</svg>
